<svg width="184" height="58" viewBox="0 0 184 58" fill="none" xmlns="http://www.w3.org/2000/svg">
<rect width="184" height="58" fill="white"/>
<path d="M64.0771 8C65.9978 8 67.8037 8.43098 69.4785 9.29297C71.176 10.1667 72.6177 11.5037 73.8145 13.2598L74.04 13.5957C75.1524 15.3025 76.008 17.3903 76.625 19.834H76.624C77.2867 22.4398 77.6104 25.4995 77.6104 29C77.6104 32.5195 77.2875 35.5977 76.625 38.2217L76.624 38.2236C75.9656 40.8119 75.0368 43.0034 73.8145 44.7686C72.6166 46.5076 71.1744 47.8341 69.4785 48.707C67.8037 49.569 65.9978 50 64.0771 50C62.1392 49.9999 60.3238 49.5698 58.6475 48.707C56.9533 47.835 55.5036 46.5098 54.2871 44.7734L54.2793 44.7627C53.0802 43.0013 52.1519 40.8147 51.4746 38.2305L51.4727 38.2217C50.8102 35.5977 50.4863 32.5195 50.4863 29C50.4863 25.4988 50.8107 22.4382 51.4736 19.832L51.4746 19.8271L51.6045 19.3438C52.2686 16.9518 53.1545 14.9179 54.2793 13.2656L54.2832 13.2598C55.4992 11.5039 56.9502 10.1667 58.6475 9.29297C60.3238 8.43017 62.1392 8.00007 64.0771 8ZM117.498 8C119.419 8 121.225 8.43094 122.899 9.29297C124.597 10.1667 126.038 11.5039 127.234 13.2598L127.46 13.5957C128.572 15.3025 129.428 17.3903 130.045 19.834H130.044C130.707 22.4398 131.031 25.4995 131.031 29C131.031 32.5195 130.707 35.5977 130.045 38.2217L130.044 38.2236C129.386 40.8119 128.457 43.0034 127.234 44.7686C126.037 46.5074 124.595 47.8341 122.899 48.707C121.225 49.5691 119.419 50 117.498 50C115.56 50 113.745 49.5698 112.068 48.707C110.374 47.8349 108.924 46.51 107.707 44.7734L107.699 44.7627C106.5 43.0013 105.572 40.8147 104.895 38.2305L104.893 38.2217C104.23 35.5977 103.907 32.5194 103.907 29C103.907 25.4988 104.231 22.4382 104.894 19.832L104.895 19.8271L105.024 19.3438C105.689 16.9518 106.574 14.9179 107.699 13.2656L107.703 13.2598C108.919 11.5038 110.371 10.1667 112.068 9.29297C113.745 8.4302 115.56 8.00001 117.498 8ZM144.092 8C145.399 8 146.663 8.10728 147.881 8.32227C149.076 8.51196 150.225 8.72087 151.326 8.94922L152.109 9.11133V17.5449L150.479 16.2139C149.871 15.7171 149.294 15.268 148.748 14.8672L148.741 14.8633L148.734 14.8574C148.237 14.4794 147.738 14.1669 147.237 13.916L147.219 13.9062L147.201 13.8965C146.731 13.6362 146.248 13.4432 145.753 13.3154L145.724 13.3076C145.243 13.168 144.72 13.0947 144.15 13.0947C143.433 13.0947 142.76 13.1939 142.126 13.3877L142.11 13.3926C141.525 13.561 141.022 13.8223 140.593 14.1768C140.191 14.5243 139.848 14.979 139.571 15.5576C139.329 16.1025 139.189 16.7892 139.189 17.6445C139.189 18.7984 139.498 19.8394 140.113 20.7891C140.78 21.7999 141.625 22.7782 142.654 23.7217C143.719 24.6971 144.872 25.6749 146.112 26.6543C147.407 27.676 148.612 28.776 149.729 29.9531C150.871 31.1584 151.822 32.4849 152.579 33.9297H152.58C153.378 35.4333 153.764 37.1337 153.764 39.0059C153.764 40.3884 153.601 41.6459 153.259 42.7646L153.257 42.7686C152.921 43.8443 152.453 44.8082 151.845 45.6504C151.265 46.4614 150.582 47.1565 149.796 47.7275C149.034 48.2809 148.217 48.7343 147.346 49.084L147.326 49.0908C146.467 49.4154 145.577 49.6482 144.657 49.79C143.776 49.9289 142.909 50 142.06 50C141.085 50 140.182 49.9612 139.352 49.8828V49.8818C138.54 49.8236 137.77 49.7276 137.044 49.5918V49.5928C136.343 49.4764 135.677 49.3398 135.048 49.1826L135.029 49.1787L135.011 49.1729C134.418 49.0006 133.833 48.8187 133.259 48.627L132.592 48.4033V39.7461L134.26 41.2568C134.845 41.7873 135.431 42.2895 136.015 42.7637C136.57 43.1962 137.139 43.5757 137.724 43.9023C138.316 44.2228 138.934 44.4746 139.576 44.6602C140.193 44.8199 140.883 44.9053 141.653 44.9053C142.323 44.9053 142.973 44.8082 143.608 44.6152C144.227 44.4151 144.77 44.1024 145.245 43.6729C145.71 43.2529 146.099 42.7058 146.4 42.0088C146.685 41.3316 146.847 40.4624 146.847 39.3721C146.847 38.4948 146.663 37.6997 146.305 36.9746L146.301 36.9678L146.297 36.959C145.93 36.1809 145.437 35.4287 144.812 34.7021C144.171 33.9583 143.435 33.236 142.601 32.5361L142.592 32.5273C141.726 31.7826 140.841 31.0381 139.937 30.293C139.015 29.534 138.113 28.756 137.231 27.959L137.224 27.9502C136.315 27.1098 135.503 26.2269 134.791 25.3008L134.785 25.293C134.059 24.3292 133.467 23.2935 133.011 22.1885L133.005 22.1748C132.551 21.0243 132.33 19.7825 132.33 18.46C132.33 16.5656 132.69 14.8999 133.464 13.5078C134.202 12.1799 135.156 11.0922 136.331 10.2686C137.478 9.44624 138.745 8.85834 140.125 8.50879L140.129 8.50781C141.479 8.17122 142.801 8.00004 144.092 8ZM20.7607 8.70312C22.4962 8.70315 24.083 8.9924 25.502 9.59375C26.9258 10.1786 28.1319 11.0511 29.1055 12.2031H29.1045C30.0889 13.345 30.8123 14.7165 31.2891 16.2969C31.7872 17.8842 32.0293 19.6584 32.0293 21.6074C32.0293 22.4721 31.9463 23.387 31.7842 24.3486L31.7832 24.3506C31.6171 25.3155 31.3478 26.2685 30.9766 27.207C30.6036 28.1498 30.128 29.0599 29.5518 29.9365L29.5459 29.9453C28.9477 30.8347 28.2114 31.6185 27.3428 32.2969C26.4742 32.9906 25.4657 33.5393 24.3281 33.9473L24.3184 33.9502C23.1657 34.3502 21.8777 34.541 20.4707 34.541H17.0078C17.0435 36.6242 17.0856 38.7498 17.1357 40.917L17.2002 42.7695C17.2725 44.6134 17.3658 46.431 17.4814 48.2217L17.5479 49.2412H10L10.0752 48.2139C10.1904 46.6337 10.2773 45.0155 10.335 43.3594V43.3486L10.4365 40.8438C10.4654 40.0133 10.4885 39.1872 10.5078 38.3662C10.5464 36.702 10.5754 35.0753 10.5947 33.4863C10.614 31.897 10.624 30.3821 10.624 28.9434C10.624 27.5048 10.614 25.9906 10.5947 24.4014C10.5754 22.8125 10.5464 21.1951 10.5078 19.5498C10.4693 17.9081 10.4121 16.2563 10.335 14.5957V14.585C10.2773 12.9286 10.1904 11.3099 10.0752 9.72949L10 8.70312H20.7607ZM52.2363 15.0908H51.2451C48.7802 15.0908 46.678 15.4251 44.918 16.0684C43.2887 16.6639 42.1299 17.521 41.3701 18.6123C41.2598 22.151 41.2031 25.7171 41.2031 29.3096C41.2031 31.0487 41.2131 32.7037 41.2324 34.2734C41.2517 35.8433 41.2807 37.3851 41.3193 38.8984C41.3578 40.408 41.4162 41.9275 41.4932 43.4561L41.6162 45.7861C41.6597 46.5813 41.7046 47.3958 41.7529 48.2285L41.8125 49.2412H34.3447L34.4043 48.2285C34.5008 46.5663 34.5779 44.9789 34.6357 43.4678V43.457C34.7128 41.9282 34.7701 40.4083 34.8086 38.8984L34.8096 38.8867C34.8673 37.3775 34.9055 35.8394 34.9248 34.2734C34.9441 32.7037 34.9541 31.0487 34.9541 29.3096C34.9541 27.5704 34.9441 25.887 34.9248 24.2607C34.9055 22.6193 34.8673 21.0056 34.8096 19.4209L34.8086 19.4102C34.7701 17.8062 34.7128 16.211 34.6357 14.626V14.6143C34.5779 13.01 34.5007 11.3767 34.4043 9.71582L34.3447 8.70312H41.8486L41.7822 9.72266C41.7269 10.5621 41.6708 11.3191 41.6152 11.9922C41.7942 11.8501 41.9775 11.708 42.167 11.5684L42.1748 11.5635C43.124 10.8792 44.1164 10.2803 45.1494 9.76953L45.5381 9.57617C46.4462 9.13446 47.3595 8.77294 48.2773 8.49414C49.3329 8.17355 50.3258 8 51.2451 8H52.2363V15.0908ZM91.1943 8.70312C92.9299 8.70312 94.5166 8.99238 95.9355 9.59375C97.3594 10.1786 98.5655 11.0511 99.5391 12.2031H99.5381C100.522 13.345 101.246 14.7165 101.723 16.2969C102.221 17.8842 102.463 19.6584 102.463 21.6074C102.463 22.4721 102.38 23.387 102.218 24.3486L102.217 24.3506C102.051 25.3155 101.781 26.2685 101.41 27.207C101.037 28.1498 100.562 29.0599 99.9854 29.9365L99.9795 29.9453C99.3813 30.8347 98.645 31.6185 97.7764 32.2969C96.9078 32.9906 95.8993 33.5393 94.7617 33.9473L94.752 33.9502C93.5992 34.3503 92.3114 34.541 90.9043 34.541H87.4414C87.4771 36.6242 87.5192 38.7498 87.5693 40.917L87.6338 42.7695C87.7061 44.6134 87.8004 46.4309 87.916 48.2217L87.9814 49.2412H80.4336L80.5088 48.2139C80.624 46.6337 80.7109 45.0155 80.7686 43.3594V43.3486L80.8701 40.8438C80.899 40.0133 80.9221 39.1872 80.9414 38.3662C80.98 36.702 81.01 35.0753 81.0293 33.4863C81.0486 31.897 81.0576 30.3821 81.0576 28.9434C81.0576 27.5048 81.0486 25.9906 81.0293 24.4014C81.01 22.8125 80.98 21.1951 80.9414 19.5498C80.9029 17.9081 80.8456 16.2563 80.7686 14.5957V14.585C80.7109 12.9286 80.624 11.3099 80.5088 9.72949L80.4336 8.70312H91.1943ZM174 15.0908H173.009C170.544 15.0908 168.442 15.4251 166.682 16.0684C165.052 16.6639 163.894 17.521 163.134 18.6123C163.024 22.151 162.968 25.7171 162.968 29.3096C162.968 31.0487 162.977 32.7037 162.996 34.2734C163.015 35.8433 163.045 37.3851 163.084 38.8984C163.122 40.408 163.18 41.9275 163.257 43.4561L163.38 45.7861C163.423 46.5813 163.469 47.3958 163.518 48.2285L163.576 49.2412H156.109L156.168 48.2285C156.264 46.5663 156.342 44.9789 156.399 43.4678V43.457C156.476 41.9282 156.534 40.4083 156.572 38.8984L156.573 38.8867C156.631 37.3775 156.669 35.8394 156.688 34.2734C156.708 32.7037 156.718 31.0487 156.718 29.3096C156.718 27.5704 156.708 25.887 156.688 24.2607C156.669 22.6193 156.631 21.0056 156.573 19.4209L156.572 19.4102C156.534 17.8062 156.476 16.211 156.399 14.626V14.6143C156.342 13.01 156.264 11.3767 156.168 9.71582L156.109 8.70312H163.613L163.546 9.72266C163.491 10.5621 163.435 11.3191 163.379 11.9922C163.558 11.85 163.742 11.708 163.932 11.5684L163.939 11.5635C164.889 10.8792 165.88 10.2803 166.913 9.76953L167.302 9.57617C168.21 9.13446 169.123 8.77294 170.041 8.49414C171.097 8.17353 172.089 8.00003 173.009 8H174V15.0908ZM64.0771 13.3193C63.2165 13.3194 62.4119 13.5754 61.6416 14.1191L61.6387 14.1221C60.903 14.6375 60.1907 15.4927 59.5391 16.7705C58.9144 18.0146 58.4046 19.6473 58.0273 21.6924C57.6534 23.7198 57.4619 26.1526 57.4619 29C57.4619 31.8666 57.6534 34.3088 58.0273 36.3359C58.4036 38.3757 58.9127 40.0042 59.5352 41.2471L59.7822 41.7031C60.3624 42.7151 60.9879 43.4335 61.6377 43.9053C62.4061 44.4305 63.2119 44.6806 64.0771 44.6807C64.8157 44.6807 65.5101 44.4903 66.1748 44.0908L66.458 43.9062C67.2173 43.3692 67.9284 42.51 68.5576 41.2568C69.1823 40.0127 69.6931 38.3809 70.0703 36.3359C70.4442 34.3088 70.6348 31.8666 70.6348 29C70.6348 26.1526 70.4442 23.7198 70.0703 21.6924C69.6931 19.6475 69.1822 18.0156 68.5576 16.7715L68.5557 16.7666C67.925 15.4931 67.2152 14.6409 66.4658 14.127L66.4561 14.1211L66.4463 14.1133C65.6959 13.5725 64.9138 13.3193 64.0771 13.3193ZM117.498 13.3193C116.637 13.3194 115.833 13.5753 115.062 14.1191L115.06 14.1221C114.324 14.6375 113.611 15.4925 112.959 16.7705C112.334 18.0146 111.824 19.6474 111.447 21.6924C111.073 23.7198 110.883 26.1527 110.883 29C110.883 31.8666 111.073 34.3088 111.447 36.3359C111.823 38.3755 112.333 40.0042 112.955 41.2471L113.203 41.7031C113.783 42.7151 114.409 43.4335 115.059 43.9053C115.827 44.4305 116.633 44.6806 117.498 44.6807C118.237 44.6807 118.931 44.4903 119.596 44.0908L119.879 43.9062C120.638 43.3693 121.348 42.5098 121.978 41.2568C122.602 40.0127 123.113 38.3809 123.49 36.3359C123.864 34.3088 124.056 31.8667 124.056 29C124.056 26.1526 123.864 23.7198 123.49 21.6924C123.113 19.6474 122.602 18.0156 121.978 16.7715L121.976 16.7666C121.345 15.4933 120.636 14.6409 119.887 14.127L119.877 14.1211L119.867 14.1133C119.117 13.5724 118.335 13.3193 117.498 13.3193ZM17.2959 13.7695C17.1833 16.2295 17.0994 18.6895 17.0479 21.1494C17.0093 23.9163 16.9902 26.5143 16.9902 28.9434V29.502H20.4707C21.8397 29.5018 22.8871 28.9312 23.6895 27.6572C24.5247 26.312 24.9951 24.3282 24.9951 21.6074C24.9951 18.8127 24.5473 16.8299 23.7676 15.5449C23.0434 14.3516 21.9922 13.7697 20.4707 13.7695H17.2959ZM87.7295 13.7695C87.6169 16.2294 87.5339 18.6895 87.4824 21.1494C87.4438 23.9163 87.4238 26.5143 87.4238 28.9434V29.502H90.9043C92.2734 29.5019 93.3206 28.9312 94.123 27.6572C94.9583 26.312 95.4297 24.3283 95.4297 21.6074C95.4297 18.8127 94.9809 16.8299 94.2012 15.5449C93.477 14.3515 92.4258 13.7696 90.9043 13.7695H87.7295Z" fill="black"/>
</svg>
