<svg width="64" height="64" viewBox="0 0 64 64" fill="none" xmlns="http://www.w3.org/2000/svg">
<rect width="64" height="64" fill="white"/>
<path d="M23.2002 11.7158C24.926 11.7158 26.504 12.0106 27.915 12.623C29.331 13.2186 30.5309 14.107 31.499 15.2803C32.4779 16.4433 33.1958 17.8406 33.6699 19.4502C34.1652 21.0668 34.4062 22.8735 34.4062 24.8584C34.4062 25.739 34.3234 26.6702 34.1621 27.6494L34.1611 27.6523C33.9959 28.6348 33.7285 29.6049 33.3594 30.5605C32.9885 31.5207 32.5155 32.448 31.9424 33.3408L31.9365 33.3496C31.3416 34.2553 30.6089 35.0533 29.7451 35.7441C28.8815 36.4506 27.8792 37.0094 26.748 37.4248L26.7383 37.4277C25.592 37.8352 24.3113 38.0293 22.9121 38.0293H19.4688C19.5042 40.1508 19.5459 42.3153 19.5957 44.5225L19.6602 46.4092C19.732 48.287 19.8255 50.1382 19.9404 51.9619L20.0059 53H12.5L12.5752 51.9541C12.6898 50.3447 12.7757 48.6965 12.833 47.0098V46.999L12.9336 44.4482C12.9623 43.6025 12.9857 42.7609 13.0049 41.9248C13.0433 40.2299 13.0726 38.5733 13.0918 36.9551C13.111 35.3365 13.1211 33.7943 13.1211 32.3291C13.1211 30.8639 13.111 29.3217 13.0918 27.7031C13.0726 26.0849 13.0433 24.4375 13.0049 22.7617C12.9666 21.0899 12.9097 19.4079 12.833 17.7168V17.7061C12.7757 16.0194 12.6898 14.3711 12.5752 12.7617L12.5 11.7158H23.2002ZM54.5 18.2207H53.5146C51.0635 18.2207 48.9728 18.5617 47.2227 19.2168C45.6024 19.8233 44.4499 20.6962 43.6943 21.8076C43.5847 25.4114 43.5293 29.0426 43.5293 32.7012C43.5293 34.4724 43.5384 36.1581 43.5576 37.7568C43.5768 39.3555 43.6062 40.9257 43.6445 42.4668C43.6828 44.0042 43.7408 45.5518 43.8174 47.1084L43.9395 49.4814C43.9827 50.2912 44.0281 51.1207 44.0762 51.9688L44.1348 53H36.709L36.7676 51.9688C36.8635 50.276 36.9406 48.6591 36.998 47.1201V47.1094C37.0746 45.5524 37.1316 44.0045 37.1699 42.4668L37.1709 42.4551C37.2283 40.918 37.266 39.3517 37.2852 37.7568C37.3044 36.1581 37.3145 34.4724 37.3145 32.7012C37.3145 30.9301 37.3044 29.2166 37.2852 27.5605C37.266 25.8888 37.2284 24.2449 37.1709 22.6309L37.1699 22.6201C37.1316 20.9867 37.0747 19.3622 36.998 17.748V17.7363C36.9406 16.1023 36.8634 14.4388 36.7676 12.7471L36.709 11.7158H44.1709L44.1045 12.7549C44.0495 13.6096 43.9938 14.38 43.9385 15.0654C44.1163 14.9208 44.299 14.7768 44.4873 14.6348L44.4951 14.6289C45.439 13.932 46.4258 13.3229 47.4531 12.8027L47.8398 12.6045C48.7427 12.1547 49.6509 11.7868 50.5635 11.5029C51.6131 11.1765 52.6005 11 53.5146 11H54.5V18.2207ZM19.7549 16.876C19.6429 19.3811 19.56 21.8865 19.5088 24.3916C19.4704 27.2095 19.4512 29.8553 19.4512 32.3291V32.8975H22.9121C24.2733 32.8973 25.3144 32.3167 26.1123 31.0195C26.943 29.6496 27.4121 27.6293 27.4121 24.8584C27.4121 22.0121 26.9658 19.9923 26.1904 18.6836C25.4703 17.4684 24.425 16.8761 22.9121 16.876H19.7549Z" fill="black"/>
</svg>
